<?xml version="1.0" encoding="UTF-8"?>
<svg width="74px" height="20px" viewBox="0 0 74 20" version="1.1" xmlns="http://www.w3.org/2000/svg" xmlns:xlink="http://www.w3.org/1999/xlink">
    <!-- Generator: Sketch 50.2 (55047) - http://www.bohemiancoding.com/sketch -->
    <title>logo_tndn_light</title>
    <desc>Created with Sketch.</desc>
    <defs></defs>
    <g id="logo_tndn_light" stroke="none" stroke-width="1" fill="none" fill-rule="evenodd">
        <g id="logo_tndn" fill="#FFFFFF">
            <path d="M68.4058,18.9096 C67.8268,18.3486 67.5378,17.6386 67.5378,16.7796 C67.5378,15.9026 67.8228,15.1926 68.3928,14.6496 C68.9618,14.1056 69.6768,13.8336 70.5358,13.8336 C71.4128,13.8336 72.1318,14.1056 72.6928,14.6496 C73.2538,15.1926 73.5338,15.9026 73.5338,16.7796 C73.5338,17.6386 73.2488,18.3486 72.6788,18.9096 C72.1098,19.4716 71.3948,19.7516 70.5358,19.7516 C69.6948,19.7516 68.9848,19.4716 68.4058,18.9096" id="Fill-10"></path>
            <path d="M63.6846,6.6015 C64.7636,7.6535 65.3026,9.2405 65.3026,11.3615 L65.3026,19.5145 L60.3056,19.5145 L60.3056,12.1775 C60.3056,10.2305 59.5246,9.2575 57.9646,9.2575 C57.1056,9.2575 56.4166,9.5385 55.8996,10.0995 C55.3826,10.6605 55.1236,11.5025 55.1236,12.6235 L55.1236,19.5145 L50.1276,19.5145 L50.1276,5.2605 L54.8876,5.2605 L54.8876,6.8115 C55.4486,6.2335 56.1146,5.7905 56.8866,5.4835 C57.6576,5.1775 58.4986,5.0235 59.4116,5.0235 C61.1816,5.0235 62.6066,5.5495 63.6846,6.6015" id="Fill-8"></path>
            <path d="M41.1587,14.8725 C41.7197,14.2685 42.0007,13.4305 42.0007,12.3615 C42.0007,11.3095 41.7237,10.4855 41.1717,9.8895 C40.6197,9.2925 39.9057,8.9945 39.0287,8.9945 C38.1517,8.9945 37.4327,9.2925 36.8717,9.8895 C36.3107,10.4855 36.0307,11.3095 36.0307,12.3615 C36.0307,13.4305 36.3107,14.2685 36.8717,14.8725 C37.4327,15.4775 38.1517,15.7805 39.0287,15.7805 C39.8877,15.7805 40.5977,15.4775 41.1587,14.8725 Z M46.9187,-0.0005 L46.9187,19.5145 L42.1587,19.5145 L42.1587,18.0945 C41.2287,19.1995 39.8347,19.7515 37.9767,19.7515 C36.6787,19.7515 35.4947,19.4485 34.4267,18.8445 C33.3567,18.2395 32.5107,17.3755 31.8877,16.2535 C31.2657,15.1315 30.9547,13.8335 30.9547,12.3615 C30.9547,10.8885 31.2657,9.5955 31.8877,8.4815 C32.5107,7.3685 33.3567,6.5145 34.4267,5.9175 C35.4947,5.3215 36.6787,5.0235 37.9767,5.0235 C39.6767,5.0235 40.9917,5.5145 41.9217,6.4965 L41.9217,-0.0005 L46.9187,-0.0005 Z" id="Fill-5"></path>
            <path d="M26.8125,6.6015 C27.8915,7.6535 28.4305,9.2405 28.4305,11.3615 L28.4305,19.5145 L23.4335,19.5145 L23.4335,12.1775 C23.4335,10.2305 22.6525,9.2575 21.0925,9.2575 C20.2335,9.2575 19.5445,9.5385 19.0275,10.0995 C18.5105,10.6605 18.2515,11.5025 18.2515,12.6235 L18.2515,19.5145 L13.2555,19.5145 L13.2555,5.2605 L18.0155,5.2605 L18.0155,6.8115 C18.5765,6.2335 19.2425,5.7905 20.0145,5.4835 C20.7855,5.1775 21.6265,5.0235 22.5395,5.0235 C24.3095,5.0235 25.7345,5.5495 26.8125,6.6015" id="Fill-3"></path>
            <path d="M11.3354,18.936 C10.9144,19.199 10.4014,19.401 9.7964,19.541 C9.1914,19.681 8.5474,19.751 7.8634,19.751 C6.0054,19.751 4.5764,19.295 3.5774,18.384 C2.5774,17.472 2.0784,16.113 2.0784,14.307 L2.0784,9.52 L0.0004,9.52 L0.0004,5.786 L2.0784,5.786 L2.0784,2.078 L7.0744,2.078 L7.0744,5.786 L10.3354,5.786 L10.3354,9.52 L7.0744,9.52 L7.0744,14.255 C7.0744,14.764 7.2104,15.162 7.4824,15.451 C7.7534,15.741 8.1174,15.885 8.5734,15.885 C9.1524,15.885 9.6604,15.736 10.0994,15.438 L11.3354,18.936 Z" id="Fill-1"></path>
        </g>
    </g>
</svg>